<?xml version="1.0" encoding="utf-8"?>
<!-- Generator: Adobe Illustrator 25.4.1, SVG Export Plug-In . SVG Version: 6.00 Build 0)  -->
<svg version="1.1" id="Layer_1" xmlns="http://www.w3.org/2000/svg" xmlns:xlink="http://www.w3.org/1999/xlink" x="0px" y="0px"
	 viewBox="0 0 622.09 621.49" style="enable-background:new 0 0 622.09 621.49;" xml:space="preserve">
<style type="text/css">
	.st0{fill:#009444;}
	.st1{fill:#39B54A;}
	.st2{fill:#006838;}
	.st3{fill:#603913;}
</style>
<polygon class="st0" points="575.4,198.45 500.43,198.45 462.94,266.96 500.43,335.47 575.4,335.47 612.88,266.96 "/>
<polygon class="st1" points="554.9,223.66 445.18,232.11 371.64,150.24 407.82,59.92 517.55,51.47 591.09,133.34 "/>
<polygon class="st2" points="388.55,236.35 244.99,306.5 107.71,224.75 113.98,72.85 257.54,2.69 394.82,84.44 "/>
<polygon class="st3" points="353.82,419.87 387.18,521.08 420.54,622.29 353.82,622.29 287.1,622.29 320.46,521.08 "/>
<polygon class="st3" points="320.92,381.77 357.34,385.16 393.76,388.56 368.52,462.24 343.27,535.92 332.1,458.84 "/>
<polygon class="st3" points="317.56,561.6 299.83,488.67 282.09,415.75 320.29,416.47 358.48,417.19 338.02,489.39 "/>
<polygon class="st3" points="362.46,561.6 305.29,474.77 248.13,387.93 260.52,380.94 272.91,373.95 317.69,467.77 "/>
<polygon class="st3" points="86.84,317.25 212.06,353.55 337.28,389.85 329.51,410.13 321.75,430.42 204.29,373.83 "/>
<polygon class="st3" points="73.69,348.18 140.71,350.87 207.74,353.56 207.03,360.96 206.32,368.36 140.01,358.27 "/>
<polygon class="st3" points="510.25,304.86 427.36,364.42 344.48,423.97 330.58,396.81 316.68,369.64 413.46,337.25 "/>
<polygon class="st3" points="501.8,211.52 469.68,283.62 437.57,355.73 427.27,350.19 416.96,344.65 459.38,278.08 "/>
<polygon class="st3" points="306.36,282.89 320.49,345.48 334.63,408.07 301.14,406.65 267.64,405.24 287,344.07 "/>
<polygon class="st3" points="233.99,214.79 284.14,252.17 334.29,289.55 322,301.96 309.71,314.36 271.85,264.58 "/>
<polygon class="st3" points="340.3,263.32 326.65,324.45 313,385.58 295.62,378.85 278.24,372.13 309.27,317.73 "/>
<polygon class="st3" points="407.96,201.88 367.62,249.57 327.27,297.26 316.31,285.21 305.35,273.16 356.66,237.52 "/>
<polygon class="st3" points="429.12,252.93 405.71,324.08 382.29,395.23 362.86,385.52 343.43,375.81 386.28,314.37 "/>
<polygon class="st3" points="417.55,198.64 408.92,266.96 400.29,335.28 391.51,333.59 382.73,331.89 400.14,265.27 "/>
<polygon class="st3" points="193.9,264.01 227.89,316.28 261.87,368.55 249.09,374.91 236.31,381.26 215.11,322.64 "/>
<polygon class="st3" points="117.12,250.03 170.88,281.05 224.64,312.07 220.15,318.79 215.66,325.51 166.39,287.77 "/>
<polygon class="st0" points="186.04,127.2 86.48,127.2 36.7,224.47 86.48,321.75 186.04,321.75 235.82,224.47 "/>
<polygon class="st1" points="74.28,377.52 10.53,341.47 11.19,268.25 75.59,231.06 139.33,267.11 138.68,340.34 "/>
<polygon class="st0" points="438.38,22.49 311.54,22.49 248.13,142.91 311.54,263.32 438.38,263.32 501.8,142.91 "/>
<polygon class="st1" points="294.42,212.86 210.81,244.99 138.85,191.65 150.5,106.18 234.12,74.04 306.08,127.38 "/>
<polygon class="st2" points="476.06,320.04 435.77,260.52 461.51,193.42 527.54,185.83 567.83,245.34 542.09,312.45 "/>
</svg>
